<?xml version="1.0" encoding="UTF-8" standalone="no"?>
<!-- Uploaded to: SVG Repo, www.svgrepo.com, Generator: SVG Repo Mixer Tools -->

<svg
   width="800"
   height="800"
   viewBox="0 0 32 32"
   fill="none"
   version="1.1"
   id="svg2"
   sodipodi:docname="js-svgrepo-com.svg"
   inkscape:version="1.3.2 (091e20e, 2023-11-25)"
   xmlns:inkscape="http://www.inkscape.org/namespaces/inkscape"
   xmlns:sodipodi="http://sodipodi.sourceforge.net/DTD/sodipodi-0.dtd"
   xmlns="http://www.w3.org/2000/svg"
   xmlns:svg="http://www.w3.org/2000/svg">
  <defs
     id="defs2" />
  <sodipodi:namedview
     id="namedview2"
     pagecolor="#ffffff"
     bordercolor="#000000"
     borderopacity="0.25"
     inkscape:showpageshadow="2"
     inkscape:pageopacity="0.0"
     inkscape:pagecheckerboard="0"
     inkscape:deskcolor="#d1d1d1"
     inkscape:zoom="0.295"
     inkscape:cx="435.59322"
     inkscape:cy="511.86441"
     inkscape:window-width="1376"
     inkscape:window-height="449"
     inkscape:window-x="103"
     inkscape:window-y="431"
     inkscape:window-maximized="0"
     inkscape:current-layer="svg2" />
  <rect
     x="2.0529201"
     y="2.0529201"
     width="28"
     height="28"
     fill="#FFCA28"
     id="rect1"
     style="fill:#9392ed;fill-opacity:1" />
  <path
     d="m 19.05292,25.34082 2.0615,-1.3642 c 0.1616,0.5076 1.1847,1.7131 2.477,1.7131 1.2923,0 1.8923,-0.7058 1.8923,-1.1738 0,-1.2752 -1.3196,-1.7248 -1.9534,-1.9407 -0.1034,-0.0352 -0.1884,-0.0642 -0.2466,-0.0895 -0.0299,-0.013 -0.075,-0.0303 -0.1329,-0.0524 -0.7049,-0.2693 -3.3056,-1.2629 -3.3056,-4.1431 0,-3.1723 3.0615,-3.5371 3.7539,-3.5371 0.4529,0 2.6307,0.0555 3.7153,2.0937 l -2,1.3959 c -0.4384,-0.8883 -1.1669,-1.1817 -1.6153,-1.1817 -1.1077,0 -1.3385,0.812 -1.3385,1.1817 0,1.0372 1.2035,1.5021 2.2196,1.8946 0.2659,0.1027 0.5189,0.2004 0.7342,0.3022 1.1077,0.5234 2.7385,1.38 2.7385,4.0764 0,1.3506 -1.1328,3.5372 -3.9846,3.5372 -3.8308,0 -4.8462,-2.2999 -5.0154,-2.7123 z"
     fill="#3E3E3E"
     id="path1"
     style="fill:#fbfbfb;fill-opacity:1" />
  <path
     d="m 9.05292,25.61162 2.1487,-1.3634 c 0.1683,0.5073 0.8226,1.4427 1.7718,1.4427 0.9493,0 1.4352,-0.975 1.4352,-1.4427 v -9.1951 h 2.6425 v 9.1951 c 0.0428,1.2683 -0.6606,3.8049 -3.765,3.8049 -2.8542,0 -4.04078,-1.6963 -4.2332,-2.4415 z"
     fill="#3E3E3E"
     id="path2"
     style="fill:#ffffff;fill-opacity:1" />
</svg>
