<?xml version="1.0" encoding="UTF-8" standalone="no"?>
<svg
   width="800"
   height="450"
   viewBox="0 0 800 450"
   fill="none"
   version="1.1"
   id="svg1"
   sodipodi:docname="network.svg"
   inkscape:version="1.3.2 (091e20e, 2023-11-25)"
   xmlns:inkscape="http://www.inkscape.org/namespaces/inkscape"
   xmlns:sodipodi="http://sodipodi.sourceforge.net/DTD/sodipodi-0.dtd"
   xmlns="http://www.w3.org/2000/svg"
   xmlns:svg="http://www.w3.org/2000/svg">
  <sodipodi:namedview
     id="namedview1"
     pagecolor="#ffffff"
     bordercolor="#000000"
     borderopacity="0.25"
     inkscape:showpageshadow="2"
     inkscape:pageopacity="0.0"
     inkscape:pagecheckerboard="0"
     inkscape:deskcolor="#d1d1d1"
     inkscape:zoom="0.46675068"
     inkscape:cx="185.32378"
     inkscape:cy="307.44465"
     inkscape:window-width="1608"
     inkscape:window-height="698"
     inkscape:window-x="0"
     inkscape:window-y="25"
     inkscape:window-maximized="0"
     inkscape:current-layer="svg1" />
  <defs
     id="defs1">
    <clipPath
       id="clip0_216_138">
      <rect
         width="265"
         height="121"
         fill="#ffffff"
         transform="matrix(1,0,0,-1,0,121)"
         id="rect1"
         x="0"
         y="0" />
    </clipPath>
  </defs>
  <g
     id="g2"
     transform="translate(5.0000006e-7,-157.24842)"
     style="fill:#9392ed;fill-opacity:1">
    <g
       clip-path="url(#clip0_216_138)"
       id="g1"
       style="fill:#9392ed;fill-opacity:1"
       transform="matrix(1.7802628,0,0,1.7802628,164.1152,209.96221)">
      <path
         d="m 204.325,0 c -21.343,0 -40.748,10.9246 -51.917,29.2312 -9.056,14.8386 -24.685,24.475 -42.04,25.9242 -1.528,0.1239 -3.044,0.1858 -4.559,0.1858 -15.753,0 -30.8224,-6.8 -41.2206,-18.7774 C 57.5568,28.4757 47.4195,23.8309 36.7852,23.8309 16.4981,23.8433 0,40.292 0,60.5062 c 0,20.2141 16.4981,36.6505 36.7728,36.6505 10.6467,0 20.7716,-4.6448 27.8032,-12.7329 10.4106,-11.9774 25.48,-18.7774 41.22,-18.7774 1.516,0 3.032,0.062 4.56,0.1858 17.367,1.4492 32.983,11.0856 42.04,25.9242 C 163.564,110.075 182.982,121 204.325,121 237.781,121 265,93.862 265,60.5062 265,27.1504 237.781,0.0123825 204.325,0.0123825 Z"
         fill="#141211"
         id="path1"
         style="fill:#9392ed;fill-opacity:1" />
    </g>
    <path
       d="M 66.49982,552.82557 H 48.042059 v -84.9399 h 16.919619 v 26.31942 h 1.196339 c 2.563579,-14.35604 13.843321,-28.02846 35.377383,-28.02846 23.58492,0 35.20648,15.89418 35.20648,35.54828 v 51.10066 H 118.2841 v -46.1444 c 0,-15.8942 -7.17802,-23.92674 -24.781258,-23.92674 -18.628663,0 -27.003022,9.5707 -27.003022,28.02846 z m 129.41532,1.70906 c -27.85756,0 -46.14442,-15.72328 -46.14442,-44.09356 0,-26.4903 18.11596,-44.26444 45.8026,-44.26444 26.3194,0 44.26534,14.52694 44.26534,40.33362 0,3.0763 -0.1709,5.46898 -0.68362,8.03256 h -72.12288 c 0.68362,16.4069 8.71616,25.12306 28.37026,25.12306 17.77414,0 25.12306,-5.81078 25.12306,-15.89418 v -1.36724 h 18.45866 v 1.53814 c 0,18.11596 -17.77504,30.59204 -43.069,30.59204 z m -0.68362,-73.83106 c -18.79958,0 -27.00304,8.37436 -28.02846,23.58492 h 55.20238 v -0.34182 c 0,-15.72328 -9.05798,-23.2431 -27.17392,-23.2431 z m 114.14598,72.122 h -19.48318 c -18.28686,0 -29.56662,-8.03254 -29.56662,-28.71208 v -40.84634 h -14.35602 v -15.38148 h 14.35602 v -18.62866 h 18.28686 v 18.62866 h 30.76294 v 15.38148 h -30.76294 v 39.82092 c 0,10.42522 4.78536,13.1597 15.38148,13.1597 h 15.38146 z m 52.22046,0 h -22.9013 l -25.46488,-84.9399 h 19.14138 l 14.18514,48.19528 3.93082,21.87586 h 1.36724 l 6.3235,-23.58492 17.77414,-46.48622 h 23.58492 l 17.94504,46.48622 6.3235,23.58492 h 1.36724 l 3.93082,-21.87586 14.18514,-48.19528 h 18.79956 l -25.80668,84.9399 h -22.9013 l -18.62868,-48.8789 -6.4944,-20.85042 h -1.36724 l -6.4944,20.85042 z m 153.27884,1.70906 c -28.19936,0 -47.16984,-17.94506 -47.16984,-44.09356 0,-26.4903 18.97048,-44.26444 47.16984,-44.26444 28.37026,0 47.34074,17.77414 47.34074,44.26444 0,26.1485 -18.97048,44.09356 -47.34074,44.09356 z m 0,-16.4069 c 20.67952,0 29.22478,-9.7416 29.22478,-27.68666 0,-18.11594 -8.54526,-28.02844 -29.22478,-28.02844 -20.50864,0 -29.0539,9.9125 -29.0539,28.02844 0,17.94506 8.54526,27.68666 29.0539,27.68666 z m 79.1932,14.69784 h -18.45776 v -84.9399 h 16.91962 v 22.9013 h 1.19634 c 2.56358,-13.67242 11.79246,-24.61034 29.22478,-24.61034 19.3123,0 27.68666,13.84332 27.68666,29.9084 v 11.10884 h -18.28686 v -7.51982 c 0,-12.13428 -5.12716,-17.77414 -17.77414,-17.77414 -14.52696,0 -20.50864,8.03254 -20.50864,23.2431 z m 86.62046,0 H 662.2327 v -114.5065 h 18.45776 v 63.23494 H 704.959 l 25.46488,-33.66834 h 21.53406 l -31.95928,40.84636 31.78838,44.09354 H 730.08208 L 704.959,518.13181 h -24.26854 z"
       fill="#141211"
       id="path1-9"
       style="fill:#9392ed;fill-opacity:1;stroke-width:1.78026" />
  </g>
</svg>
