<?xml version="1.0" encoding="UTF-8" standalone="no"?>
<!-- Uploaded to: SVG Repo, www.svgrepo.com, Generator: SVG Repo Mixer Tools -->

<svg
   fill="#000000"
   width="800px"
   height="800px"
   viewBox="0 -4 32 32"
   version="1.1"
   id="svg1"
   sodipodi:docname="sass-svgrepo-com.svg"
   inkscape:version="1.3.2 (091e20e, 2023-11-25)"
   xmlns:inkscape="http://www.inkscape.org/namespaces/inkscape"
   xmlns:sodipodi="http://sodipodi.sourceforge.net/DTD/sodipodi-0.dtd"
   xmlns="http://www.w3.org/2000/svg"
   xmlns:svg="http://www.w3.org/2000/svg">
  <defs
     id="defs1" />
  <sodipodi:namedview
     id="namedview1"
     pagecolor="#ffffff"
     bordercolor="#000000"
     borderopacity="0.25"
     inkscape:showpageshadow="2"
     inkscape:pageopacity="0.0"
     inkscape:pagecheckerboard="0"
     inkscape:deskcolor="#d1d1d1"
     inkscape:zoom="0.295"
     inkscape:cx="401.69492"
     inkscape:cy="400"
     inkscape:window-width="1376"
     inkscape:window-height="449"
     inkscape:window-x="0"
     inkscape:window-y="25"
     inkscape:window-maximized="0"
     inkscape:current-layer="svg1" />
  <path
     d="m 27.541,13.796 c 0.039,-10e-4 0.085,-0.002 0.132,-0.002 0.834,0 1.623,0.194 2.323,0.54 L 29.965,14.32 c 0.638,0.311 1.162,0.771 1.541,1.335 l 0.009,0.014 c 0.299,0.436 0.477,0.975 0.477,1.555 0,0.042 -0.001,0.084 -0.003,0.125 v -0.006 c -0.031,0.579 -0.294,1.09 -0.698,1.448 l -0.002,0.002 c -0.221,0.217 -0.488,0.387 -0.785,0.495 l -0.015,0.005 q -0.25,0.05 -0.275,-0.075 -0.025,-0.125 0.225,-0.275 c 0.452,-0.274 0.779,-0.716 0.898,-1.237 l 0.003,-0.013 c 0.003,-0.042 0.005,-0.091 0.005,-0.141 0,-0.311 -0.074,-0.605 -0.205,-0.865 l 0.005,0.011 c -0.217,-0.453 -0.541,-0.825 -0.94,-1.094 l -0.01,-0.006 c -0.597,-0.384 -1.313,-0.636 -2.083,-0.699 l -0.016,-10e-4 c -0.262,-0.039 -0.564,-0.061 -0.872,-0.061 -0.801,0 -1.566,0.151 -2.27,0.426 l 0.042,-0.015 c 0.145,0.339 0.236,0.732 0.249,1.144 v 0.005 c -0.016,0.845 -0.47,1.58 -1.145,1.99 l -0.011,0.006 c -0.31,0.22 -0.664,0.413 -1.041,0.563 l -0.035,0.012 c -0.229,0.112 -0.498,0.177 -0.782,0.177 -0.033,0 -0.065,-0.001 -0.097,-0.003 h 0.005 q -0.949,-0.199 -0.45,-1.65 c 0.145,-0.421 0.348,-0.786 0.605,-1.107 l -0.006,0.007 c 0.329,-0.43 0.69,-0.807 1.089,-1.141 L 23.388,15.242 23.29,15.096 C 23.107,14.784 22.939,14.421 22.804,14.042 L 22.79,13.996 q -0.15,-0.5 -0.25,-0.949 l -0.05,-0.35 -0.5,0.949 q -0.65,1.2 -1.25,2.099 l -0.15,0.25 c 0.168,0.408 0.292,0.881 0.348,1.375 l 0.002,0.025 c 0.004,0.047 0.006,0.103 0.006,0.159 0,0.758 -0.374,1.428 -0.948,1.837 l -0.007,0.005 c -0.274,0.169 -0.601,0.344 -0.94,0.5 l -0.06,0.025 c -0.353,0.153 -0.762,0.253 -1.191,0.275 h -0.009 c -0.033,0.002 -0.072,0.004 -0.111,0.004 -0.25,0 -0.487,-0.057 -0.699,-0.158 l 0.01,0.004 c -0.127,-0.109 -0.207,-0.269 -0.207,-0.448 0,-0.091 0.021,-0.178 0.058,-0.255 l -0.002,0.004 c 0.4,-0.561 0.794,-1.049 1.213,-1.515 l -0.013,0.015 1.1,-1.399 -0.199,-0.45 c -0.16,-0.294 -0.313,-0.641 -0.436,-1.001 l -0.014,-0.048 q -0.15,-0.5 -0.25,-0.949 l -0.05,-0.35 -0.5,1.2 q -0.599,1.399 -1.1,2.399 -0.747,1.5 -1.25,2.3 l -0.1,0.15 q -0.599,0.949 -1.15,0.949 -0.551,0 -0.747,-0.7 c -0.096,-0.344 -0.152,-0.739 -0.152,-1.147 0,-0.036 0,-0.072 10e-4,-0.108 v 0.005 l 0.1,-0.7 v 0.05 q -0.4,0.949 -0.8,1.749 c -0.177,0.346 -0.359,0.641 -0.563,0.919 l 0.013,-0.019 c -0.206,0.216 -0.496,0.35 -0.817,0.35 -0.003,0 -0.005,0 -0.008,0 -0.021,0.002 -0.045,0.002 -0.069,0.002 -0.253,0 -0.483,-0.096 -0.657,-0.253 l 0.001,0.001 C 10.044,20.439 9.785,19.992 9.651,19.493 L 9.646,19.472 C 9.482,19.017 9.388,18.491 9.388,17.943 c 0,-0.071 0.002,-0.141 0.005,-0.21 v 0.01 c 0.079,-0.796 0.238,-1.525 0.471,-2.22 l -0.021,0.071 -1.799,1.05 v 0.05 c 0.261,0.542 0.414,1.178 0.414,1.85 0,0.123 -0.005,0.245 -0.015,0.365 l 0.001,-0.016 c -0.053,1.03 -0.382,1.973 -0.913,2.77 l 0.013,-0.02 C 6.987,22.527 6.184,23.21 5.23,23.605 l -0.033,0.012 c -0.537,0.241 -1.165,0.382 -1.825,0.382 -0.418,0 -0.824,-0.056 -1.208,-0.162 l 0.032,0.007 C 1.878,23.737 1.618,23.525 1.453,23.251 L 1.45,23.245 C 1.217,22.907 1.07,22.494 1.047,22.049 V 22.043 C 1.036,21.942 1.03,21.825 1.03,21.706 c 0,-0.513 0.117,-0.999 0.326,-1.432 l -0.009,0.02 c 0.574,-0.979 1.368,-1.772 2.316,-2.33 l 0.03,-0.016 C 4.364,17.483 5.135,17.032 5.94,16.639 l 0.106,-0.047 0.25,-0.15 q -0.45,-0.35 -1.65,-1.2 C 3.577,14.526 2.648,13.803 1.772,13.021 l 0.025,0.022 C 0.95,12.314 0.333,11.34 0.056,10.231 L 0.048,10.193 C 0.022,10.039 0.007,9.862 0.007,9.682 0.007,9.118 0.152,8.588 0.406,8.127 L 0.398,8.144 C 0.958,6.94 1.734,5.925 2.686,5.109 L 2.698,5.099 C 3.728,4.126 4.894,3.279 6.16,2.593 L 6.247,2.55 C 7.378,1.897 8.699,1.29 10.076,0.803 l 0.17,-0.052 c 1.279,-0.468 2.756,-0.742 4.296,-0.747 h 0.002 C 14.614,0.002 14.697,0 14.78,0 c 1.241,0 2.415,0.287 3.459,0.798 L 18.193,0.777 c 0.9,0.41 1.574,1.182 1.844,2.126 l 0.006,0.024 c 0.083,0.322 0.13,0.692 0.13,1.073 0,0.632 -0.131,1.234 -0.366,1.78 l 0.011,-0.029 c -0.428,1.037 -1.037,1.92 -1.797,2.647 l -0.003,0.003 c -0.77,0.763 -1.693,1.373 -2.718,1.78 L 15.245,10.2 c -1.074,0.461 -2.321,0.751 -3.63,0.799 L 11.596,11 c -0.192,0.022 -0.414,0.034 -0.639,0.034 -0.592,0 -1.163,-0.085 -1.703,-0.244 l 0.043,0.011 C 8.814,10.647 8.397,10.408 8.043,10.098 l 0.004,0.003 C 7.799,9.899 7.597,9.65 7.453,9.367 L 7.447,9.354 Q 7.297,8.954 7.422,8.879 7.547,8.804 7.597,8.854 l 0.25,0.25 c 0.279,0.259 0.612,0.463 0.98,0.593 l 0.02,0.006 c 0.506,0.176 1.09,0.278 1.697,0.278 0.195,0 0.387,-0.01 0.576,-0.031 l -0.023,0.002 c 1.618,-0.191 3.077,-0.743 4.336,-1.573 l -0.037,0.023 c 1.064,-0.633 1.925,-1.503 2.531,-2.54 l 0.018,-0.034 c 0.301,-0.442 0.481,-0.988 0.481,-1.576 0,-0.361 -0.068,-0.707 -0.192,-1.025 l 0.007,0.019 C 17.867,2.655 17.262,2.239 16.556,2.124 L 16.542,2.122 C 15.994,1.987 15.364,1.909 14.717,1.909 c -0.521,0 -1.031,0.05 -1.524,0.146 l 0.05,-0.008 C 11.556,2.351 10.048,2.872 8.657,3.588 L 8.748,3.545 Q 2.6,6.645 2.399,9.894 v 0.049 c 0,0.873 0.343,1.666 0.902,2.252 L 3.3,12.194 c 0.637,0.708 1.341,1.333 2.11,1.873 l 0.039,0.026 c 0.701,0.524 1.321,1.065 1.898,1.649 l 10e-4,0.002 0.1,0.1 3.2,-1.749 c 0.365,-0.528 0.804,-0.974 1.308,-1.334 l 0.016,-0.011 c 0.4,-0.336 0.908,-0.555 1.465,-0.599 l 0.009,-10e-4 c 0.02,-0.002 0.043,-0.002 0.067,-0.002 0.373,0 0.693,0.225 0.831,0.547 l 0.002,0.006 c 0.105,0.235 0.166,0.51 0.166,0.799 0,0.088 -0.006,0.175 -0.017,0.261 l 0.001,-0.01 -0.097,0.493 0.15,-0.1 c 0.104,-0.079 0.235,-0.126 0.377,-0.126 0.09,0 0.175,0.019 0.252,0.053 l -0.004,-0.002 c 0.192,0.05 0.331,0.222 0.331,0.426 0,0.035 -0.004,0.069 -0.012,0.102 l 10e-4,-0.003 -0.15,0.55 q -0.45,1.799 -0.599,2.599 c -0.05,0.173 -0.078,0.372 -0.078,0.578 0,0.043 10e-4,0.085 0.004,0.127 v -0.006 q 0.025,0.3 0.075,0.3 0.05,0 0.199,-0.3 l 0.15,-0.35 q 0.05,0 0,0.05 l 0.55,-1.15 q 1.95,-4.298 2.099,-4.8 l 0.3,-0.949 q 0.05,-0.1 0.4,-0.199 c 0.237,-0.064 0.508,-0.101 0.788,-0.101 0.023,0 0.046,0 0.068,0.001 h -0.003 q 0.7,0 0.7,0.35 l -0.05,0.25 c -0.112,0.308 -0.223,0.693 -0.309,1.087 l -0.011,0.063 c -0.02,0.129 -0.032,0.277 -0.032,0.429 0,0.202 0.02,0.399 0.059,0.59 l -0.003,-0.019 0.05,0.199 c 0.102,0.417 0.257,0.783 0.46,1.117 l -0.01,-0.017 q 0.599,-0.999 1.15,-2.049 c 0.29,-0.483 0.56,-1.043 0.777,-1.629 l 0.023,-0.07 c 0.075,-0.377 0.161,-0.695 0.266,-1.005 l -0.016,0.056 q 0.05,-0.15 0.427,-0.225 c 0.238,-0.048 0.511,-0.075 0.79,-0.075 h 0.036 -0.002 q 0.7,0 0.747,0.35 l -0.1,0.199 c -0.119,0.336 -0.223,0.74 -0.293,1.155 l -0.006,0.045 c -0.009,0.097 -0.015,0.209 -0.015,0.323 0,0.239 0.024,0.473 0.069,0.699 L 24,12.744 v 0.199 c 0.115,0.436 0.286,0.819 0.51,1.166 l -0.01,-0.016 0.15,0.35 c 0.835,-0.41 1.817,-0.65 2.855,-0.65 h 0.039 -0.002 z M 6.102,21.049 c 0.695,-0.718 1.124,-1.698 1.124,-2.778 0,-0.417 -0.064,-0.819 -0.182,-1.197 l 0.008,0.028 -0.8,0.5 C 5.436,18.067 4.73,18.586 4.091,19.176 L 4.099,19.169 C 3.614,19.615 3.256,20.192 3.08,20.843 l -0.006,0.025 q -0.225,0.925 0.225,1.2 c 0.183,0.084 0.398,0.133 0.623,0.133 0.246,0 0.479,-0.058 0.684,-0.162 l -0.009,0.004 c 0.594,-0.216 1.097,-0.559 1.497,-0.998 l 0.003,-0.003 z m 6.697,-4.604 q 0.25,-0.65 0.55,-1.55 0.4,-1.2 0.275,-1.399 -0.125,-0.199 -0.475,-0.05 c -0.278,0.135 -0.511,0.32 -0.697,0.547 l -0.003,0.004 c -0.208,0.263 -0.406,0.557 -0.582,0.866 l -0.018,0.034 c -0.202,0.331 -0.373,0.712 -0.492,1.116 l -0.009,0.034 c -0.193,0.523 -0.305,1.128 -0.305,1.758 0,0.085 0.002,0.169 0.006,0.253 v -0.012 q 0.05,0.999 0.32,1.075 0.27,0.076 0.625,-0.725 C 12.223,17.983 12.427,17.503 12.579,17 l 0.014,-0.054 q 0.149,-0.354 0.204,-0.501 z m 5.546,2.65 c 0.693,-0.311 1.181,-0.966 1.249,-1.741 l 10e-4,-0.008 v -0.05 l -0.55,0.7 -0.999,1.1 c -0.015,0.012 -0.025,0.03 -0.025,0.05 0,0.02 0.01,0.038 0.024,0.05 q 0.048,0.049 0.3,-0.1 z m 4.299,-0.95 c 0.756,-0.216 1.3,-0.901 1.3,-1.712 0,-0.013 0,-0.026 0,-0.039 v 0.002 c -0.01,-0.2 -0.046,-0.388 -0.105,-0.566 l 0.004,0.015 c -0.389,0.346 -0.708,0.76 -0.939,1.227 l -0.011,0.023 q -0.451,0.899 -0.252,1.048 z"
     id="path1"
     style="fill:#9392ed;fill-opacity:1" />
</svg>
