<?xml version="1.0" encoding="UTF-8" standalone="no"?>
<!-- Uploaded to: SVG Repo, www.svgrepo.com, Generator: SVG Repo Mixer Tools -->

<svg
   fill="#000000"
   width="800px"
   height="800px"
   viewBox="0 0 32 32"
   id="icon"
   version="1.1"
   sodipodi:docname="sql-svgrepo-com.svg"
   inkscape:version="1.3.2 (091e20e, 2023-11-25)"
   xmlns:inkscape="http://www.inkscape.org/namespaces/inkscape"
   xmlns:sodipodi="http://sodipodi.sourceforge.net/DTD/sodipodi-0.dtd"
   xmlns="http://www.w3.org/2000/svg"
   xmlns:svg="http://www.w3.org/2000/svg">
  <sodipodi:namedview
     id="namedview2"
     pagecolor="#ffffff"
     bordercolor="#000000"
     borderopacity="0.25"
     inkscape:showpageshadow="2"
     inkscape:pageopacity="0.0"
     inkscape:pagecheckerboard="0"
     inkscape:deskcolor="#d1d1d1"
     inkscape:zoom="0.295"
     inkscape:cx="401.69492"
     inkscape:cy="401.69492"
     inkscape:window-width="1376"
     inkscape:window-height="610"
     inkscape:window-x="0"
     inkscape:window-y="25"
     inkscape:window-maximized="0"
     inkscape:current-layer="icon" />
  <defs
     id="defs1">
    <style
       id="style1">.cls-1{fill:none;}</style>
  </defs>
  <title
     id="title1">SQL</title>
  <polygon
     points="24 21 24 9 22 9 22 23 30 23 30 21 24 21"
     id="polygon1"
     style="fill:#9392ed;fill-opacity:1" />
  <path
     d="M18,9H14a2,2,0,0,0-2,2V21a2,2,0,0,0,2,2h1v2a2,2,0,0,0,2,2h2V25H17V23h1a2,2,0,0,0,2-2V11A2,2,0,0,0,18,9ZM14,21V11h4V21Z"
     id="path1"
     style="fill:#9392ed;fill-opacity:1" />
  <path
     d="M8,23H2V21H8V17H4a2,2,0,0,1-2-2V11A2,2,0,0,1,4,9h6v2H4v4H8a2,2,0,0,1,2,2v4A2,2,0,0,1,8,23Z"
     id="path2"
     style="fill:#9392ed;fill-opacity:1" />
  <rect
     id="_Transparent_Rectangle_"
     data-name="&lt;Transparent Rectangle&gt;"
     class="cls-1"
     width="32"
     height="32" />
</svg>
