<?xml version="1.0" encoding="UTF-8" standalone="no"?>
<!-- Created with Inkscape (http://www.inkscape.org/) -->

<svg
   width="800"
   height="800"
   viewBox="0 0 211.66667 211.66667"
   version="1.1"
   id="svg1"
   xml:space="preserve"
   inkscape:version="1.3.2 (091e20e, 2023-11-25)"
   sodipodi:docname="veggietaste.svg"
   xmlns:inkscape="http://www.inkscape.org/namespaces/inkscape"
   xmlns:sodipodi="http://sodipodi.sourceforge.net/DTD/sodipodi-0.dtd"
   xmlns="http://www.w3.org/2000/svg"
   xmlns:svg="http://www.w3.org/2000/svg"><sodipodi:namedview
     id="namedview1"
     pagecolor="#ffffff"
     bordercolor="#000000"
     borderopacity="0.25"
     inkscape:showpageshadow="2"
     inkscape:pageopacity="0.0"
     inkscape:pagecheckerboard="0"
     inkscape:deskcolor="#d1d1d1"
     inkscape:document-units="mm"
     inkscape:zoom="0.59456316"
     inkscape:cx="455.79682"
     inkscape:cy="395.24817"
     inkscape:window-width="1672"
     inkscape:window-height="985"
     inkscape:window-x="0"
     inkscape:window-y="25"
     inkscape:window-maximized="0"
     inkscape:current-layer="layer1" /><defs
     id="defs1" /><g
     inkscape:label="Capa 1"
     inkscape:groupmode="layer"
     id="layer1"><g
       id="g3"
       transform="matrix(1.1172227,0,0,1.1172227,-12.406067,-13.518406)"
       style="stroke:#9392ed;stroke-opacity:1;stroke-width:0.10472397;stroke-dasharray:none"><path
         style="font-weight:bold;font-size:88.8575px;line-height:1;font-family:'Market Saturday';-inkscape-font-specification:'Market Saturday Bold';text-align:center;letter-spacing:0.660539px;word-spacing:0px;text-anchor:middle;fill:#9392ed;fill-opacity:1;stroke:#9392ed;stroke-width:0.10472397;stroke-linecap:round;stroke-dasharray:none;stroke-opacity:1"
         d="m 49.327145,165.18447 c -0.696263,-7.10899 -1.182148,-14.1485 -1.457659,-21.11857 -0.276946,-7.04345 -0.412445,-13.97944 -0.406498,-20.80795 0.0252,-2.27662 0.01558,-4.55256 -0.02886,-6.82786 0.0252,-2.27662 0.08522,-4.55388 0.180065,-6.83181 0.04385,-1.32245 0.1225,-2.64557 0.235983,-3.96933 0.183133,-1.32507 0.331443,-2.64949 0.444927,-3.97326 0.126391,-0.66319 0.119225,-1.03018 -0.02151,-1.10096 -0.142162,-0.14416 -0.524506,-0.10026 -1.147029,0.13175 l -4.98019,1.856 -4.980191,1.85601 c -0.898243,0.38405 -1.762383,0.73072 -2.592414,1.04006 l -2.699038,0.93194 c -0.55431,0.15729 -1.109336,0.27789 -1.665082,0.36178 -0.625389,0.0853 -1.218105,0.0598 -1.778153,-0.0766 -0.351104,-0.14025 -0.599888,-0.39255 -0.746353,-0.7569 -0.07252,-0.14548 -0.04057,-0.29293 0.09586,-0.44235 0.06678,-0.14811 0.169101,-0.26016 0.30696,-0.33619 l 2.794904,-1.37428 c 2.48436,-1.22159 4.97087,-2.33308 7.459531,-3.33448 2.556876,-1.07611 5.150724,-2.04278 7.781548,-2.9 2.630824,-0.85723 5.297903,-1.64172 8.001243,-2.35346 l 8.105714,-2.35543 c 1.455424,-0.39455 2.911565,-0.75239 4.368422,-1.07353 l 4.370571,-0.96343 c 0.695038,-0.0865 1.462592,-0.0276 2.30266,0.17689 0.490399,0.13761 0.740616,0.4633 0.750653,0.97708 0.0029,0.14679 -0.09802,0.33225 -0.302658,0.55638 -0.206075,0.15073 -0.378042,0.2641 -0.515903,0.34012 -0.761817,0.23463 -1.489528,0.4319 -2.183133,0.59181 -0.693605,0.15992 -1.421318,0.35719 -2.183136,0.59181 l -7.065306,2.11556 c -2.285455,0.70387 -4.606451,1.3717 -6.962987,2.00349 -0.692169,0.23331 -1.03037,0.75365 -1.014597,1.56101 0.04158,2.12852 0.04906,4.29437 0.02242,6.49758 -0.02806,2.12982 -0.0213,4.25898 0.02027,6.38749 0.210167,7.19156 0.419615,14.34644 0.628345,21.46459 0.208733,7.11817 0.453005,14.27239 0.732815,21.46264 0.127004,2.93456 0.219182,5.86978 0.276537,8.80565 l 0.169912,8.69749 c 0.01864,0.95416 -0.109189,1.54396 -0.383471,1.7694 -0.203208,0.29754 -0.721259,0.52756 -1.554158,0.69009 -0.693605,0.15992 -1.355255,0.17239 -1.984948,0.0374 -0.560047,-0.13628 -0.946689,-0.31255 -1.159933,-0.5288 -0.213244,-0.21628 -0.360424,-0.61733 -0.441542,-1.20319 z m 22.74714,-14.85632 c -0.528501,1.47843 -0.812519,2.98895 -0.852055,4.53161 -0.03955,1.54264 0.05951,3.04595 0.297125,4.50995 0.0057,0.29358 0.07969,0.51247 0.221846,0.65665 0.143596,0.21755 0.317714,0.21427 0.522354,-0.01 0.883907,-1.11802 1.595128,-2.15937 2.133666,-3.124 1.689563,-2.67509 3.168032,-5.45633 4.435411,-8.34374 1.265943,-2.9608 2.53117,-5.95829 3.795681,-8.9925 0.132126,-0.36959 0.194603,-0.7379 0.187434,-1.10488 0.06104,-0.44169 0.122807,-0.84668 0.185283,-1.21499 0.124957,-0.73659 -0.129566,-1.28247 -0.763558,-1.63764 -0.565782,-0.42988 -1.08957,-0.49344 -1.571365,-0.19067 -0.410715,0.37484 -0.856969,0.71368 -1.338765,1.01645 -0.413583,0.22805 -0.789473,0.60225 -1.127671,1.12258 -2.857794,3.50477 -4.899588,7.76511 -6.125386,12.78103 z m 16.019059,17.54015 c -0.93552,-1.52429 -1.66283,-3.08919 -2.1819,-4.69472 -0.450862,-1.68026 -0.832076,-3.36181 -1.143645,-5.0447 -0.313001,-1.75627 -0.590462,-3.4765 -0.832382,-5.16069 -0.241921,-1.68418 -0.518666,-3.36772 -0.830233,-5.05058 -0.0029,-0.1468 -0.03985,-0.25625 -0.110931,-0.32833 l -0.0065,-0.33028 c -0.27572,0.15205 -0.446971,0.30212 -0.513752,0.45021 -0.667795,1.48107 -1.300767,2.96146 -1.898915,4.44121 -0.599582,1.40635 -1.268095,2.85069 -2.005537,4.33306 -0.468891,0.96335 -0.973322,1.89065 -1.513294,2.78192 -0.541406,0.81785 -1.082095,1.6724 -1.622067,2.56367 -0.746045,1.04199 -1.639989,1.64623 -2.68183,1.8127 -0.972195,0.16516 -2.230147,-0.0313 -3.773857,-0.58971 -1.053312,-0.4207 -1.871462,-1.28637 -2.454448,-2.59701 -1.384955,-3.13113 -1.791978,-6.13383 -1.221074,-9.00812 0.86609,-5.59651 2.862307,-10.40667 5.988652,-14.43044 0.406412,-0.59506 0.849083,-1.11738 1.328011,-1.56693 0.548575,-0.45089 1.063043,-0.86441 1.543404,-1.24057 2.533933,-2.25045 5.730536,-2.67779 9.589814,-1.28204 0.351103,0.14024 0.66595,0.20772 0.944539,0.20248 l 0.940238,-0.0177 c 0.490397,0.13761 0.945257,0.23918 1.364567,0.30469 0.48897,0.0642 0.94382,0.16581 1.36458,0.30471 0.98079,0.2752 1.48266,0.99999 1.5056,2.17434 0.0186,0.95414 0.002,1.90895 -0.0486,2.86443 l 0.0581,2.97257 0.13765,7.04608 c 0.0459,2.34869 0.16141,4.69607 0.34659,7.04215 0.10119,1.61342 0.30757,3.26156 0.61914,4.94444 0.31013,1.60948 0.65509,3.2183 1.03487,4.82646 0.72945,1.675 1.41046,2.6534 2.04302,2.93518 0.63113,0.20837 1.25508,0.0498 1.87187,-0.47582 0.61535,-0.59899 1.22641,-1.41816 1.83315,-2.45752 0.60533,-1.11274 3.531056,-4.47955 4.346216,-5.32508 0.53113,-0.55091 3.77473,-2.81805 4.86107,-3.1239 1.40152,-0.39461 -0.009,1.92294 -4.75376,6.38263 -0.26713,0.59243 -0.63513,1.37031 -1.10401,2.33366 -0.40067,0.88862 -0.94137,1.74319 -1.622076,2.56367 -0.68068,0.8205 -1.43246,1.56889 -2.25532,2.2452 -0.8243,0.60292 -1.72397,0.91356 -2.69904,0.93194 -2.01977,0.038 -3.4547,-0.30203 -4.30481,-1.02025 -0.85011,-0.71822 -1.5645,-1.62256 -2.14319,-2.71301 z m 28.376676,-10.22658 -0.0323,-1.65141 c -0.0824,-0.65928 -0.19415,-1.02429 -0.33492,-1.09506 -0.14215,-0.14417 -0.48823,-0.0275 -1.03824,0.34996 -1.99396,1.35921 -3.84576,2.86256 -5.55541,4.51011 -1.70964,1.64753 -3.17048,3.54736 -4.38255,5.69947 -0.74318,1.18878 -0.99811,2.40509 -0.7648,3.6489 0.24766,1.97776 1.27475,2.8395 3.08129,2.58519 0.76324,-0.16122 1.38576,-0.39323 1.86757,-0.696 2.40897,-1.51386 4.14913,-3.38223 5.22046,-5.60513 1.13956,-2.29762 1.75103,-4.87897 1.8344,-7.74406 z m -3.27025,14.48937 c -0.54858,0.45088 -1.23788,0.831 -2.06791,1.14032 -0.83004,0.30933 -1.73115,0.54659 -2.70334,0.71175 -0.90254,0.16385 -1.84208,0.21828 -2.81857,0.16329 -0.90541,0.0171 -1.74405,-0.114 -2.5159,-0.39313 -1.26081,-0.34338 -2.25093,-1.09567 -2.97035,-2.2569 -0.651206,-1.23593 -0.851136,-2.5538 -0.599786,-3.95357 0.25421,-1.25299 0.684696,-2.39917 1.291446,-3.43854 1.16511,-1.99582 3.36377,-5.10707 7.05363,-8.06267 1.8518,-1.50335 3.77541,-2.89794 5.77079,-4.18374 0.9636,-0.60555 1.47663,-1.09245 1.53911,-1.46074 0.0625,-0.3683 -0.19488,-1.06098 -0.77215,-2.07803 -0.72229,-1.30803 -1.81689,-2.05835 -3.28376,-2.25098 -0.97794,-0.12843 -1.98999,-0.2195 -3.03612,-0.27321 -0.97794,-0.12841 -1.95587,-0.25685 -2.93378,-0.38527 -1.32762,-0.19525 -2.55289,-0.50257 -3.67583,-0.92196 -0.98224,-0.3486 -1.690906,-0.95936 -2.125996,-1.83224 -0.43652,-0.9463 -0.59517,-1.93453 -0.47595,-2.9647 0.18025,-1.47188 0.50197,-2.83627 0.96513,-4.09319 0.461706,-1.33033 1.134526,-2.55451 2.018436,-3.67252 1.35853,-1.78777 2.85993,-3.39466 4.50423,-4.82068 1.64429,-1.42604 3.46772,-2.59846 5.47028,-3.51728 1.86471,-0.8428 3.7373,-1.28192 5.61777,-1.31734 l 0.62684,-0.0122 c 0.34966,0.0669 0.66453,0.13437 0.94453,0.20248 0.28002,0.0682 0.45846,0.28509 0.53527,0.65072 0.0783,0.43906 -0.0553,0.73529 -0.4007,0.88863 -0.27714,0.0787 -0.55358,0.19403 -0.82931,0.34604 -4.41583,2.21249 -7.97227,5.62027 -10.66925,10.22336 -0.33676,0.59374 -0.63798,1.22352 -0.90367,1.88933 -0.19746,0.59112 -0.39424,1.21891 -0.59026,1.88341 -0.13355,0.29622 -0.19746,0.59112 -0.19173,0.88471 l 0.0172,0.88075 c 0.0911,1.09965 0.65976,1.67633 1.70594,1.73003 l 5.02106,0.23581 c 2.23015,0.0314 4.3339,0.72606 6.31127,2.08381 0.35397,0.28701 0.67383,0.6114 0.95958,0.97313 0.35541,0.36042 0.676,0.7215 0.96176,1.08325 0.28575,0.36173 0.63616,0.46527 1.05116,0.3106 1.17397,-0.53609 2.3849,-0.96274 3.63282,-1.27993 1.31756,-0.31853 2.59816,-0.74648 3.84177,-1.28388 0.82859,-0.38273 1.69202,-0.76613 2.59026,-1.15016 0.89681,-0.45745 1.76309,-0.69403 2.59887,-0.70978 0.27857,-0.005 0.41859,0.0289 0.42002,0.10231 0.14218,0.14417 0.31845,0.25098 0.52881,0.32045 0.28004,0.0682 0.45702,0.21169 0.53097,0.43053 0.0769,0.36567 -0.0219,0.66122 -0.29622,0.88667 -0.27428,0.22543 -0.54929,0.41418 -0.82501,0.56621 -0.96646,0.45876 -1.93219,0.95421 -2.89722,1.48635 -0.8968,0.45744 -1.82844,0.91553 -2.7949,1.37429 -1.10432,0.53477 -2.17311,1.10558 -3.20634,1.71245 -0.96503,0.53214 -1.9656,1.02825 -3.0017,1.48831 -0.62109,0.3054 -0.92446,0.82507 -0.91012,1.55906 0.18661,2.41945 -0.0128,4.69936 -0.59795,6.83966 -1.35792,5.38551 -4.16298,9.80708 -8.41513,13.26468 z m 19.58945,-16.00832 c -0.23681,-4.98835 -0.22838,-9.90791 0.0252,-14.75864 0.25217,-4.92415 0.71399,-9.81552 1.38548,-14.67414 l 0.54079,-4.41561 c 0.24848,-1.54658 0.46285,-3.0558 0.64312,-4.52768 0.12782,-0.5898 0.12057,-0.95678 -0.0216,-1.10096 -0.14216,-0.14416 -0.4904,-0.13759 -1.04471,0.0197 -1.17683,0.38928 -2.38778,0.81594 -3.63282,1.27994 l -3.53051,1.16787 c -0.48466,0.15598 -0.97004,0.27527 -1.45613,0.35783 -0.4861,0.0827 -1.00701,0.16587 -1.56276,0.24973 -0.34824,0.006 -0.66381,-0.0978 -0.94669,-0.31256 -0.634,-0.35518 -0.67601,-0.72153 -0.12603,-1.09899 0.68644,-0.52691 1.40913,-0.98107 2.16808,-1.36249 1.58612,-0.83753 3.17581,-1.4916 4.76909,-1.96215 1.66292,-0.47188 3.32658,-0.90706 4.99094,-1.30553 0.90112,-0.23723 1.41345,-0.76087 1.53696,-1.57084 0.31383,-1.7681 0.70017,-3.39068 1.15902,-4.86781 0.32959,-0.96072 0.94351,-1.63311 1.84176,-2.01715 0.89825,-0.38404 1.77027,-0.32704 2.61608,0.17099 0.63399,0.35517 0.95887,0.93643 0.97466,1.7438 l 0.0301,1.54134 c 0.009,0.44037 -0.0169,0.91811 -0.0765,1.43321 -0.054,0.80866 -0.01,1.28509 0.13248,1.42926 0.14216,0.14416 0.59487,0.13563 1.35811,-0.0256 1.11149,-0.1678 2.18743,-0.37164 3.22786,-0.6115 1.11005,-0.24118 2.22083,-0.44567 3.33232,-0.61347 0.69359,-0.1599 1.38862,-0.24643 2.08511,-0.25954 l 2.08941,-0.0393 c 0.34823,-0.006 0.66307,0.0609 0.94453,0.20247 0.35111,0.14024 0.53096,0.43054 0.53956,0.87092 0.009,0.44038 -0.15978,0.73726 -0.50514,0.8906 -0.3468,0.08 -0.69361,0.15995 -1.0404,0.23988 -1.94725,0.18354 -3.85683,0.51321 -5.72869,0.98902 -1.87332,0.40242 -3.74664,0.80482 -5.61993,1.20723 -0.76181,0.23462 -1.17038,0.71957 -1.22569,1.45486 -0.11351,1.32377 -0.22698,2.64754 -0.34046,3.9713 -0.0438,1.32246 -0.12253,2.64556 -0.23597,3.96932 l -1.21219,18.19522 c -0.0962,2.20452 -0.19257,4.40905 -0.28884,6.61358 -0.0962,2.20453 -0.19257,4.40904 -0.28883,6.61357 -0.0977,2.13113 -0.22954,4.29961 -0.39546,6.50545 -0.16736,2.13244 -0.33473,4.26487 -0.50209,6.39732 -0.11924,1.03017 -0.34937,1.73204 -0.69043,2.10559 -0.34106,0.37354 -0.99914,0.56949 -1.9742,0.58786 -0.55717,0.011 -0.97577,-0.0183 -1.2558,-0.0865 -0.76898,-0.13238 -1.29564,-0.34273 -1.57996,-0.63106 -0.21613,-0.36304 -0.36688,-0.9476 -0.4523,-1.75365 -0.10986,-2.05379 -0.21461,-3.85069 -0.31433,-5.39073 -0.10121,-1.6134 -0.20672,-3.447 -0.31647,-5.5008 z m 32.9307,-23.19824 c 0.1264,-0.6632 0.18457,-1.25167 0.17453,-1.76545 0.0596,-0.5151 -0.0223,-1.13765 -0.24551,-1.86769 -0.44226,-1.23987 -1.17498,-1.29948 -2.19819,-0.17885 -1.63856,1.71961 -2.8201,3.65089 -3.54463,5.79384 -0.72599,2.06954 -1.27497,4.2826 -1.64696,6.63916 -0.12783,0.5898 0.0491,0.7333 0.53095,0.43054 l 1.85898,-1.13639 c 0.68786,-0.45349 1.30536,-0.94238 1.85251,-1.46666 0.95929,-0.82574 1.67194,-1.79367 2.13797,-2.90381 0.46603,-1.11013 0.82613,-2.2917 1.08035,-3.54469 z m -3.33541,32.55283 c -1.80796,0.18093 -3.45112,-0.1185 -4.92951,-0.89833 -1.47834,-0.77982 -2.75565,-1.96725 -3.83192,-3.56228 -1.21841,-1.73921 -2.02611,-3.85329 -2.42308,-6.34222 -1.18666,-7.24658 -0.31299,-14.2383 2.621,-20.97513 0.59814,-1.47975 1.33917,-2.77863 2.22307,-3.89662 0.95212,-1.19273 2.11677,-2.20589 3.49394,-3.0395 2.61791,-1.51781 5.2254,-1.78721 7.82242,-0.8082 1.47406,0.55961 2.33063,1.60812 2.56967,3.14553 0.23904,1.53739 0.0921,2.93519 -0.44062,4.19345 -0.71307,2.7301 -1.81637,5.10046 -3.3099,7.11103 -1.49495,1.93718 -3.6616,3.37306 -6.49993,4.30763 -0.55431,0.15727 -0.97077,0.23855 -1.24936,0.2438 -0.48608,0.0827 -0.72339,0.41748 -0.71193,1.00462 -0.11924,1.03019 -0.20291,2.09641 -0.25104,3.19869 -0.0497,1.02885 0.005,2.05575 0.16475,3.08068 0.2448,1.83098 0.6978,3.62133 1.35904,5.37103 0.65981,1.67633 1.59533,3.20059 2.80658,4.57282 1.06335,0.93448 2.3511,0.87349 3.86327,-0.18297 1.10002,-0.75496 2.05931,-1.5807 2.87788,-2.4772 0.88675,-0.97122 1.70316,-1.97782 2.44921,-3.01982 0.88534,-1.0446 1.83388,-2.42081 2.84562,-4.12862 1.08138,-1.70914 2.16132,-3.49165 3.23983,-5.34755 1.0785,-1.85591 2.12291,-3.67448 3.13321,-5.45567 1.01029,-1.78121 1.92257,-3.23017 2.73683,-4.34685 0.96933,-0.31195 1.25508,0.0498 0.85728,1.08519 -0.40356,0.74184 -0.90727,1.70585 -1.51115,2.892 -0.53568,1.11145 -1.10473,2.29695 -1.70717,3.55651 -0.60246,1.25955 -1.20564,2.4824 -1.80951,3.66856 -0.60389,1.18615 -1.10831,2.11344 -1.5133,2.78189 -2.35736,4.15616 -4.96492,7.98661 -7.82271,11.49136 -0.81713,0.96989 -1.70965,1.64754 -2.67754,2.0329 -0.96789,0.38534 -2.04313,0.62588 -3.22569,0.72157 z"
         id="text1"
         aria-label="Taste"
         sodipodi:nodetypes="ccccccccscccccccccscsccsccsccscccsccscsscccscccscccccccscccccsccscccsccccccccccccscccsccsccccccssccscssssccccscccsccccscccccsccscscccccccscsccccccccscccccsccccscccsccccccccccccccsccccccccccccscsscccccsscsccccccccscccsscccccccccccccccsccsccccccsccccccccccsccsscccssccscc" /><text
         xml:space="preserve"
         style="font-style:normal;font-variant:normal;font-weight:bold;font-stretch:normal;font-size:64.6564px;line-height:1;font-family:'Market Saturday';-inkscape-font-specification:'Market Saturday Bold';text-align:center;letter-spacing:0.811573px;word-spacing:0px;text-anchor:middle;fill:#9392ed;fill-opacity:1;stroke:#9392ed;stroke-width:0.10472397;stroke-linecap:round;stroke-dasharray:none;stroke-opacity:1"
         x="104.19238"
         y="82.944572"
         id="text3"
         transform="scale(0.9900993,1.0099997)"><tspan
           sodipodi:role="line"
           id="tspan3"
           style="fill:#9392ed;fill-opacity:1;stroke:#9392ed;stroke-width:0.10472397;stroke-dasharray:none;stroke-opacity:1"
           x="104.59817"
           y="82.944572">Veggie</tspan></text></g></g></svg>
